<svg width="105" height="18" viewBox="0 0 105 18" fill="none" xmlns="http://www.w3.org/2000/svg">
<path d="M9.86257 6.75928H6.16848V4.19394C6.16848 3.76639 5.94615 3.55261 5.50149 3.55261H4.4497C3.98794 3.55261 3.75706 3.76639 3.75706 4.19394V14.1988C3.75706 14.4382 3.80837 14.6092 3.91098 14.7118C4.01359 14.7974 4.19317 14.8401 4.4497 14.8401H5.50149C5.74092 14.8401 5.91195 14.7974 6.01456 14.7118C6.11717 14.6092 6.16848 14.4382 6.16848 14.1988V11.7104H9.86257V14.5323C9.86257 16.4135 8.77658 17.3541 6.60459 17.3541H3.32095C1.16607 17.3541 0.088623 16.4135 0.088623 14.5323V3.86045C0.088623 1.9792 1.16607 1.03857 3.32095 1.03857H6.60459C8.77658 1.03857 9.86257 1.9792 9.86257 3.86045V6.75928Z" fill="#B6F9D1"/>
<path d="M11.8429 1.03857H15.4857V17.3541H11.8429V1.03857Z" fill="#B6F9D1"/>
<path d="M27.5243 6.75928H23.8302V4.19394C23.8302 3.76639 23.6079 3.55261 23.1633 3.55261H22.1115C21.6497 3.55261 21.4188 3.76639 21.4188 4.19394V14.1988C21.4188 14.4382 21.4701 14.6092 21.5727 14.7118C21.6754 14.7974 21.8549 14.8401 22.1115 14.8401H23.1633C23.4027 14.8401 23.5737 14.7974 23.6763 14.7118C23.7789 14.6092 23.8302 14.4382 23.8302 14.1988V11.7104H27.5243V14.5323C27.5243 16.4135 26.4383 17.3541 24.2664 17.3541H20.9827C18.8278 17.3541 17.7504 16.4135 17.7504 14.5323V3.86045C17.7504 1.9792 18.8278 1.03857 20.9827 1.03857H24.2664C26.4383 1.03857 27.5243 1.9792 27.5243 3.86045V6.75928Z" fill="#B6F9D1"/>
<path d="M33.0705 14.6605H37.7651V17.3541H29.4277V1.03857H33.0705V14.6605Z" fill="#B6F9D1"/>
<path d="M58.1367 17.3541H54.9044V1.03857H58.9063L61.5999 10.2738L64.2935 1.03857H68.2955V17.3541H65.0631V6.40014L62.9596 13.814H60.2403L58.1367 6.42579V17.3541Z" fill="#B6F9D1"/>
<path d="M78.0516 17.3541L77.4872 14.404H73.7675L73.2031 17.3541H69.5859L73.28 1.03857H77.949L81.7457 17.3541H78.0516ZM74.2805 11.736H76.9485L75.6145 4.83528L74.2805 11.736Z" fill="#B6F9D1"/>
<path d="M83.0129 1.03857H89.7341C91.889 1.03857 92.9664 1.9792 92.9664 3.86045V8.81156C92.9664 10.7099 91.889 11.6591 89.7341 11.6591H86.6557V17.3541H83.0129V1.03857ZM89.298 8.32414V4.37352C89.298 3.94596 89.0757 3.73218 88.631 3.73218H86.6557V8.96548H88.631C89.0757 8.96548 89.298 8.7517 89.298 8.32414Z" fill="#B6F9D1"/>
<path d="M101.302 17.3541L100.738 14.404H97.0181L96.4537 17.3541H92.8366L96.5307 1.03857H101.2L104.996 17.3541H101.302ZM97.5312 11.736H100.199L98.8651 4.83528L97.5312 11.736Z" fill="#B6F9D1"/>
<path d="M52.6042 9.17725C52.6042 13.0125 49.5166 16.1043 45.7292 16.1043C41.9417 16.1043 38.8542 13.0125 38.8542 9.17725C38.8542 5.34196 41.9417 2.25016 45.7292 2.25016C49.5166 2.25016 52.6042 5.34196 52.6042 9.17725Z" stroke="#B6F9D1" stroke-width="3.33333"/>
</svg>
