<svg width="1185" height="280" viewBox="0 0 1185 280" fill="none" xmlns="http://www.w3.org/2000/svg">
<path d="M54.1127 0.0048887C41.2459 0.0048887 30.3031 4.5744 21.4046 13.7134C12.2655 22.7322 7.81627 33.675 7.81627 46.5418V162.824C7.81627 175.57 12.2655 186.393 21.4046 195.532C30.3031 204.551 41.1256 209.12 54.1127 209.12C66.8592 209.12 77.6817 204.551 86.8208 195.532C95.8395 186.393 100.409 175.57 100.409 162.824V158.014V150.438H92.8333H73.473H65.8972V158.014V162.824C65.8972 166.071 64.6947 168.836 62.4099 171.241C60.0049 173.526 57.2392 174.729 54.1127 174.729C50.8659 174.729 48.1001 173.526 45.6951 171.241C43.2901 168.836 42.2079 166.071 42.2079 162.824V46.5418C42.2079 43.1748 43.2901 40.409 45.6951 38.1243C47.9799 35.7192 50.7456 34.637 53.9924 34.637C57.3594 34.637 60.1252 35.7192 62.2897 38.1243C64.6947 40.409 65.7769 43.1748 65.7769 46.5418V51.3518V58.9276H73.3527H92.713H100.289V51.3518V46.5418C100.289 33.675 95.8395 22.7322 86.7005 13.8337C77.5615 4.69465 66.7389 0.0048887 54.1127 0.0048887ZM148.726 0.0048887H141.27V7.58066V201.424V209H148.726H168.206H175.662V201.424V7.58066V0.0048887H168.206H148.726ZM265.224 0.0048887C252.357 0.0048887 241.415 4.5744 232.516 13.7134C223.377 22.7322 218.928 33.675 218.928 46.5418V162.824C218.928 175.57 223.377 186.393 232.516 195.532C241.415 204.551 252.237 209.12 265.224 209.12C277.971 209.12 288.793 204.551 297.932 195.532C306.951 186.393 311.521 175.57 311.521 162.824V158.014V150.438H303.945H284.584H277.009V158.014V162.824C277.009 166.071 275.806 168.836 273.521 171.241C271.116 173.526 268.351 174.729 265.224 174.729C261.977 174.729 259.212 173.526 256.807 171.241C254.402 168.836 253.319 166.071 253.319 162.824V46.5418C253.319 43.1748 254.402 40.409 256.807 38.1243C259.091 35.7192 261.857 34.637 265.104 34.637C268.471 34.637 271.237 35.7192 273.401 38.1243C275.806 40.409 276.888 43.1748 276.888 46.5418V51.3518V58.9276H284.464H303.825H311.4V51.3518V46.5418C311.4 33.675 306.951 22.7322 297.812 13.8337C288.673 4.69465 277.85 0.0048887 265.224 0.0048887ZM358.755 0.0048887H351.299V7.58066V201.424V209H358.755H424.532H432.108V201.424V182.064V174.608H424.532H385.691V7.58066V0.0048887H378.235H358.755ZM514.575 0.0048887C501.709 0.0048887 490.766 4.5744 481.867 13.7134C472.728 22.7322 468.279 33.675 468.279 46.5418V162.824C468.279 175.57 472.728 186.393 481.867 195.532C490.766 204.551 501.588 209.12 514.575 209.12C527.322 209.12 538.144 204.551 547.283 195.532C556.302 186.393 560.872 175.45 560.872 162.824V46.5418C560.872 33.7952 556.302 22.8525 547.283 13.8337C538.144 4.69465 527.202 0.0048887 514.575 0.0048887ZM514.575 34.637C517.702 34.637 520.468 35.7192 522.873 38.1243C525.157 40.409 526.36 43.1748 526.36 46.5418V162.824C526.36 166.071 525.157 168.836 522.873 171.241C520.347 173.526 517.582 174.729 514.575 174.729C511.329 174.729 508.563 173.526 506.158 171.241C503.753 168.836 502.671 166.071 502.671 162.824V46.5418C502.671 43.1748 503.753 40.409 506.158 38.1243C508.443 35.7192 511.208 34.637 514.575 34.637ZM602.935 209C613.277 209 641.175 209 638.409 209V59.4086L665.465 209H697.813L723.667 59.4086V209H759.261V0.0048887H703.104L681.098 140.457L658.972 0.0048887H602.815L602.935 209ZM866.38 143.704H842.931L854.595 44.1368L866.38 143.704ZM871.43 176.653C873.475 187.475 875.639 198.418 877.804 209.241H913.157L877.202 0.0048887H832.108L796.154 209H831.507C833.551 198.177 835.716 187.475 837.88 176.653H871.43ZM976.986 209H984.442V201.424V141.179H989.011C1003.08 141.179 1015.11 136.249 1025.21 126.148C1035.19 116.167 1040.24 104.142 1040.24 89.9522V51.2315C1040.24 37.1622 1035.19 25.1372 1025.21 15.1564C1015.11 5.0554 1003.08 0.125139 989.011 0.125139H976.986H957.505H950.05V7.70091V70.7121V114.363V201.544V209.12H957.505L976.986 209ZM984.442 34.637H989.011C993.581 34.637 997.429 36.2002 1000.8 39.5673C1004.04 42.6938 1005.73 46.662 1005.73 51.3518V90.0724C1005.73 94.7622 1004.04 98.7304 1000.8 101.857C997.429 105.104 993.581 106.787 989.011 106.787H984.442V34.637ZM1134.97 143.704H1111.52L1123.19 44.1368L1134.97 143.704ZM1140.02 176.653C1142.07 187.475 1144.23 198.418 1146.39 209.241H1181.75L1145.79 0.0048887H1100.7L1064.74 209H1100.1C1102.14 198.177 1104.31 187.475 1106.47 176.653H1140.02Z" fill="#9FFFCE"/>
<line x1="9" y1="262.5" x2="1185" y2="262.5" stroke="#9FFFCE" stroke-width="35"/>
</svg>
